<svg width="512" height="512" viewBox="0 0 512 512" fill="none" xmlns="http://www.w3.org/2000/svg" xmlns:xlink="http://www.w3.org/1999/xlink" class=""><rect id="_r_9_" width="512" height="512" x="0" y="0" rx="128" fill="url(#_r_a_)" stroke="#FFFFFF" stroke-width="0" stroke-opacity="100%" paint-order="stroke"></rect><rect width="512" height="512" x="0" y="0" fill="url(#_r_b_)" rx="128" style="mix-blend-mode: overlay;"></rect><clipPath id="clip"><use xlink:href="#_r_9_"></use></clipPath><defs><radialGradient id="_r_a_" cx="50%" cy="50%" r="100%" fx="50%" fy="0%" gradientUnits="objectBoundingBox"><stop stop-color="#695BF8"></stop><stop offset="1" stop-color="#131308"></stop></radialGradient><radialGradient id="_r_b_" cx="0" cy="0" r="1" gradientUnits="userSpaceOnUse" gradientTransform="translate(256) rotate(90) scale(512)"><stop stop-color="white"></stop><stop offset="1" stop-color="white" stop-opacity="0"></stop></radialGradient></defs><svg xmlns="http://www.w3.org/2000/svg" fill="none" viewBox="0 0 16 16" width="352" height="352" x="80" y="80" alignment-baseline="middle" style="color: rgb(255, 255, 255); width: 352px; height: 352px;"><path stroke="currentColor" stroke-linecap="round" stroke-linejoin="round" stroke-width="1.5" d="M3.75 1.75h8.5a2 2 0 0 1 2 2v8.5a2 2 0 0 1-2 2h-8.5a2 2 0 0 1-2-2v-8.5a2 2 0 0 1 2-2Z"></path><path stroke="currentColor" stroke-linecap="round" stroke-linejoin="round" stroke-width="2" d="M5 5h1.5v1.5H5V5Zm0 4.5h1.5V11H5V9.5ZM9.5 5H11v1.5H9.5V5Zm0 4.5H11V11H9.5V9.5Z"></path></svg></svg>